<svg xmlns="http://www.w3.org/2000/svg" viewBox="0 0 400 400">
    <!-- Background -->
    <rect width="400" height="400" fill="#7BB0AB"/>
    
    <!-- Organic shapes -->
    <path d="M0,200 Q100,50 200,200 T400,200" fill="#F0824F" opacity="0.8"/>
    <path d="M0,250 Q150,100 300,250 T400,250" fill="#6EF0E3" opacity="0.7"/>
    
    <!-- Circular elements -->
    <circle cx="300" cy="100" r="60" fill="#067066"/>
    <circle cx="100" cy="300" r="80" fill="#471b06" opacity="0.9"/>
    
    <!-- Overlapping rectangles -->
    <rect x="150" y="150" width="120" height="120" fill="#A18B81" transform="rotate(45 210 210)" opacity="0.8"/>
    <rect x="180" y="180" width="100" height="100" fill="#6EF0E3" transform="rotate(30 230 230)" opacity="0.6"/>
    
    <!-- Additional decorative elements -->
    <path d="M50,50 L100,20 L150,50 L100,80 Z" fill="#F0824F"/>
    <path d="M250,350 L300,320 L350,350 L300,380 Z" fill="#067066"/>
    
    <!-- Curved lines -->
    <path d="M0,150 C50,50 150,50 200,150 S350,250 400,150" fill="none" stroke="#471b06" stroke-width="3"/>
    <path d="M0,250 C50,150 150,150 200,250 S350,350 400,250" fill="none" stroke="#A18B81" stroke-width="2"/>
</svg>
